HIERARCHY
ROOT Hips
{
 OFFSET 0.000000 0.000000 0.000000
 CHANNELS 6 Xposition Yposition Zposition Yrotation Xrotation Zrotation
 JOINT Chest
 {
  OFFSET 0.000000 9.585900 0.002600
  CHANNELS 3 Yrotation Xrotation Zrotation
  JOINT Chest2
  {
   OFFSET 0.000000 9.601200 -0.005300
   CHANNELS 3 Yrotation Xrotation Zrotation
   JOINT Chest3
   {
    OFFSET 0.000000 9.561800 0.000000
    CHANNELS 3 Yrotation Xrotation Zrotation
    JOINT Chest4
    {
     OFFSET 0.000000 9.552100 0.000000
     CHANNELS 3 Yrotation Xrotation Zrotation
     JOINT Neck
     {
      OFFSET 0.000000 14.453000 0.000000
      CHANNELS 3 Yrotation Xrotation Zrotation
      JOINT Head
      {
       OFFSET 0.000000 8.936500 -0.011300
       CHANNELS 3 Yrotation Xrotation Zrotation
       End Site
       {
        OFFSET 0.000000 17.073600 -0.006000
       }
      }
     }
     JOINT RightCollar
     {
      OFFSET -2.921100 9.558500 0.000000
      CHANNELS 3 Yrotation Xrotation Zrotation
      JOINT RightShoulder
      {
       OFFSET -13.519700 0.000000 0.000000
       CHANNELS 3 Yrotation Xrotation Zrotation
       JOINT RightElbow
       {
        OFFSET 0.000000 -29.696600 0.000000
        CHANNELS 3 Yrotation Xrotation Zrotation
        JOINT RightWrist
        {
         OFFSET 0.000000 -24.004700 0.000000
         CHANNELS 3 Yrotation Xrotation Zrotation
         End Site
         {
          OFFSET 0.000000 -17.728500 0.000000
         }
        }
       }
      }
     }
     JOINT LeftCollar
     {
      OFFSET 2.921100 9.558500 0.000000
      CHANNELS 3 Yrotation Xrotation Zrotation
      JOINT LeftShoulder
      {
       OFFSET 13.519700 0.000000 0.000000
       CHANNELS 3 Yrotation Xrotation Zrotation
       JOINT LeftElbow
       {
        OFFSET 0.000000 -29.696600 0.000000
        CHANNELS 3 Yrotation Xrotation Zrotation
        JOINT LeftWrist
        {
         OFFSET 0.000000 -24.004700 0.000000
         CHANNELS 3 Yrotation Xrotation Zrotation
         End Site
         {
          OFFSET 0.000000 -17.728500 0.000000
         }
        }
       }
      }
     }
    }
   }
  }
 }
 JOINT RightHip
 {
  OFFSET -7.771700 -0.012900 -0.001300
  CHANNELS 3 Yrotation Xrotation Zrotation
  JOINT RightKnee
  {
   OFFSET 0.000000 -40.869800 0.001200
   CHANNELS 3 Yrotation Xrotation Zrotation
   JOINT RightAnkle
   {
    OFFSET 0.000000 -39.717900 0.002100
    CHANNELS 3 Yrotation Xrotation Zrotation
    JOINT RightToe
    {
     OFFSET 0.000000 -4.965400 11.033500
     CHANNELS 3 Yrotation Xrotation Zrotation
     End Site
     {
      OFFSET 0.000000 -1.423100 5.872300
     }
    }
   }
  }
 }
 JOINT LeftHip
 {
  OFFSET 7.771700 -0.012900 -0.001300
  CHANNELS 3 Yrotation Xrotation Zrotation
  JOINT LeftKnee
  {
   OFFSET 0.000000 -40.869800 0.001200
   CHANNELS 3 Yrotation Xrotation Zrotation
   JOINT LeftAnkle
   {
    OFFSET 0.000000 -39.717900 0.002100
    CHANNELS 3 Yrotation Xrotation Zrotation
    JOINT LeftToe
    {
     OFFSET 0.000000 -4.965400 11.033500
     CHANNELS 3 Yrotation Xrotation Zrotation
     End Site
     {
      OFFSET 0.000000 -1.423100 5.872300
     }
    }
   }
  }
 }
}
MOTION
Frames: 16
Frame Time: 0.008333
0.000000 85.388000 0.000000 0.000000 -5.767877 0.000000 0.000000 11.653817 0.000000 0.000000 -5.885947 0.000000 0.000000 -0.000000 0.000000 0.000000 -0.000000 0.000000 0.000000 12.528835 0.000000 0.000000 0.711642 0.000000 0.000000 -0.000000 0.000000 0.000000 0.000000 -90.000000 0.000000 -2.309062 0.000000 0.000000 2.309062 0.000000 0.000000 -0.000000 0.000000 0.000000 -0.000000 90.000000 0.000000 -2.309062 0.000000 0.000000 2.309062 0.000000 0.000000 8.520406 0.000000 0.000000 1.905762 0.000000 -0.000000 -4.658285 0.000000 0.000000 -0.000000 0.000000 0.000000 8.520406 0.000000 0.000000 1.905762 0.000000 -0.000000 -4.658285 0.000000 0.000000 -0.000000 0.000000
-219.207197 57.876767 25.307540 175.640939 -49.373266 -4.107199 6.633201 21.114126 3.040820 3.543072 12.166338 1.447975 4.561110 15.086170 1.938471 3.551665 12.141059 1.469508 5.865272 12.588206 2.988717 9.867756 -12.359045 3.350489 3.761961 1.987578 3.378845 -5.513403 -18.499903 -9.077154 -111.614474 -51.491672 153.375571 9.041217 -3.955434 -4.397533 -8.097061 1.608904 1.129776 30.747571 -27.932930 -1.193968 142.658712 -45.180530 -161.256087 -4.511350 -22.549789 14.165199 4.219359 -22.437556 -1.802856 -39.232103 73.581132 -41.788627 4.755927 -13.737864 10.948862 -0.032262 -0.079505 0.059126 -7.708722 -21.633893 8.739347 59.890838 77.724688 59.245211 5.408210 -15.018397 -18.964809 0.033580 0.049330 0.047123
-219.209765 57.881387 25.307998 175.682185 -49.446459 -4.121963 6.634590 21.130171 3.048963 3.544537 12.174347 1.445583 4.568409 15.077189 1.934354 3.549960 12.161589 1.468652 5.852900 12.661281 3.058472 9.821503 -12.215144 3.479900 3.740721 2.024731 3.415177 -5.396575 -18.431673 -9.030025 -111.155358 -51.950866 152.911137 8.946474 -3.852214 -4.678480 -8.050707 1.740457 1.121984 30.318782 -27.722491 -1.225433 142.690761 -45.712801 -161.171595 -4.479295 -22.717771 14.444771 4.215120 -22.355581 -1.805911 -39.252080 73.571740 -41.809199 4.744794 -13.734588 10.953499 -0.020528 -0.082864 0.053136 -7.745386 -21.554643 8.742303 59.851917 77.724990 59.164902 5.381387 -15.010461 -18.958464 0.056866 0.042550 0.049932
-219.218112 57.881380 25.312434 175.687139 -49.493781 -4.075022 6.641100 21.120024 3.016538 3.571702 12.121939 1.447581 4.539720 15.136054 1.941864 3.571702 12.121979 1.447602 5.820716 12.793342 3.159543 9.761291 -12.047851 3.625441 3.712274 2.121184 3.466262 -5.294160 -18.372631 -8.984021 -110.568065 -52.462165 152.344489 8.833359 -3.766064 -5.003716 -8.057673 1.888367 1.142152 29.895964 -27.449792 -1.256632 142.525176 -46.333312 -160.968795 -4.407317 -22.865089 14.711659 4.240024 -22.302173 -1.847745 -39.199973 73.568811 -41.789620 4.748934 -13.703348 10.987631 -0.045259 -0.111844 0.022305 -7.734049 -21.510686 8.695483 59.818571 77.714916 59.107707 5.340809 -15.022809 -18.959411 0.086999 0.055909 0.069504
-219.221402 57.878882 25.320691 175.699041 -49.524925 -4.063750 6.640126 21.121461 3.006534 3.578378 12.090679 1.450104 4.530570 15.170257 1.943228 3.574387 12.093564 1.441905 5.800235 12.898497 3.237245 9.688198 -11.857469 3.786739 3.705716 2.181444 3.478509 -5.189173 -18.312255 -8.936798 -109.832645 -53.024938 151.648893 8.696565 -3.703387 -5.367486 -8.061951 1.958335 1.147380 29.458944 -27.122318 -1.274104 142.156825 -47.037939 -160.637133 -4.296761 -22.983840 14.953360 4.246365 -22.269199 -1.859457 -39.189983 73.562697 -41.792348 4.736192 -13.704305 10.997293 -0.051038 -0.104359 0.019355 -7.740865 -21.479280 8.683764 59.777878 77.703040 59.041903 5.327770 -15.021311 -18.951620 0.074167 0.068680 0.069242
-219.225184 57.880164 25.326218 175.742300 -49.589458 -4.070871 6.627389 21.105429 3.006201 3.563600 12.142525 1.445268 4.535263 15.124282 1.941163 3.566467 12.110397 1.445100 5.775125 13.014276 3.321079 9.603994 -11.647655 3.961723 3.695191 2.234663 3.483721 -5.072448 -18.241265 -8.895418 -108.925048 -53.626297 150.793771 8.533457 -3.654760 -5.771035 -8.041474 2.065782 1.143947 28.968345 -26.812953 -1.302367 141.579516 -47.820888 -160.164564 -4.151775 -23.066407 15.162649 4.246112 -22.195698 -1.862530 -39.219252 73.544280 -41.827813 4.705493 -13.700066 10.997082 -0.034098 -0.100142 0.030444 -7.760734 -21.413118 8.662633 59.715271 77.679889 58.946455 5.312329 -15.004902 -18.934862 0.074124 0.075186 0.067968
-219.229280 57.887651 25.326891 175.781965 -49.706658 -4.070610 6.613722 21.158139 3.003030 3.554295 12.177961 1.441264 4.534965 15.093450 1.941007 3.559169 12.113496 1.447126 5.745334 13.139123 3.409589 9.509268 -11.421182 4.147530 3.673554 2.295257 3.480309 -4.927049 -18.174856 -8.861203 -107.825846 -54.243337 149.757194 8.351686 -3.602250 -6.223318 -8.011525 2.221113 1.151265 28.438576 -26.528806 -1.363954 140.789587 -48.676042 -159.535640 -3.976613 -23.102961 15.341526 4.239443 -22.071566 -1.882363 -39.198431 73.542281 -41.816355 4.698742 -13.683745 10.999907 -0.035378 -0.114976 0.027086 -7.768324 -21.293818 8.627645 59.662914 77.674881 58.873480 5.296126 -14.987519 -18.933561 0.079821 0.064205 0.073262
-219.229400 57.890190 25.332844 175.803200 -49.787546 -4.082491 6.610244 21.222456 3.012352 3.558444 12.078630 1.452929 4.524860 15.194402 1.938237 3.547317 12.071190 1.449509 5.712309 13.273940 3.500216 9.407889 -11.176177 4.338733 3.605723 2.373169 3.442393 -4.712835 -18.116350 -8.813011 -106.535213 -54.851493 148.532751 8.159906 -3.528562 -6.714951 -7.997512 2.323314 1.154172 27.851486 -26.193810 -1.390163 139.785519 -49.596547 -158.733557 -3.773843 -23.085836 15.498475 4.236248 -21.988266 -1.868243 -39.222013 73.531318 -41.844167 4.688294 -13.678656 11.001250 -0.031978 -0.115812 0.032186 -7.777980 -21.210599 8.626500 59.620602 77.679786 58.818406 5.284470 -14.986839 -18.938613 0.097343 0.063137 0.079180
-219.232820 57.891800 25.339315 175.829462 -49.865120 -4.079508 6.591192 21.181308 3.016131 3.544230 12.119849 1.450593 4.523526 15.215724 1.935644 3.527582 12.077913 1.456324 5.678016 13.420497 3.591785 9.304183 -10.909279 4.532199 3.571764 2.445698 3.414207 -4.495604 -18.051442 -8.795918 -105.064493 -55.437317 147.122543 7.969146 -3.434606 -7.223231 -7.977012 2.408609 1.148433 27.185607 -25.849383 -1.399087 138.562874 -50.575840 -157.740321 -3.532563 -23.020997 15.634856 4.235584 -21.907570 -1.885045 -39.226277 73.525980 -41.849776 4.688120 -13.674579 11.003151 -0.018016 -0.117232 0.027514 -7.782953 -21.133963 8.607509 59.555087 77.678264 58.726794 5.273993 -14.976929 -18.925299 0.094660 0.063676 0.079160
-219.236240 57.891448 25.347667 175.850012 -49.930498 -4.074248 6.569009 21.164384 3.013120 3.540015 12.174194 1.445253 4.509913 15.186350 1.939604 3.510467 12.091362 1.460554 5.641659 13.580915 3.684610 9.196524 -10.616430 4.728968 3.538922 2.516153 3.379148 -4.259420 -17.981309 -8.790504 -103.439840 -55.999588 145.545409 7.777148 -3.337637 -7.733148 -7.949984 2.466050 1.128278 26.437469 -25.497022 -1.383847 137.097840 -51.601517 -156.528986 -3.240400 -22.920491 15.748410 4.234011 -21.840521 -1.904934 -39.217713 73.524190 -41.842556 4.692581 -13.674895 11.005234 -0.018520 -0.113802 0.015165 -7.785247 -21.071051 8.593069 59.508474 77.672265 58.654017 5.261906 -14.968848 -18.911889 0.078885 0.068950 0.077961
-219.238956 57.888214 25.358747 175.869997 -49.976007 -4.075350 6.550706 21.179603 3.007213 3.534435 12.177678 1.444605 4.470327 15.129092 1.953405 3.515142 12.140065 1.455776 5.600425 13.757105 3.777672 9.080061 -10.294096 4.928342 3.505930 2.577442 3.338624 -4.017967 -17.898435 -8.798172 -101.689107 -56.530160 143.831474 7.565790 -3.248298 -8.236269 -7.930924 2.541662 1.115918 25.655794 -25.176206 -1.394158 135.335601 -52.651458 -155.058421 -2.894796 -22.793953 15.836798 4.227571 -21.790375 -1.916447 -39.204975 73.518585 -41.831175 4.691283 -13.688863 11.006631 -0.021151 -0.095705 0.010527 -7.789553 -21.028699 8.581014 59.469719 77.660056 58.599977 5.253378 -14.965182 -18.902239 0.082689 0.080513 0.073758
-219.242738 57.889835 25.365667 175.899144 -50.062689 -4.076620 6.528742 21.236385 3.000013 3.520037 12.152063 1.451164 4.448903 15.135445 1.965334 3.508826 12.164859 1.455472 5.551678 13.949829 3.868904 8.950759 -9.940933 5.127171 3.472157 2.624447 3.291807 -3.783006 -17.795653 -8.816098 -99.813707 -57.009934 141.992418 7.338968 -3.176316 -8.721842 -7.914565 2.598439 1.090653 24.847269 -24.870341 -1.395469 133.203996 -53.695159 -153.286322 -2.497804 -22.640594 15.898510 4.216303 -21.698232 -1.932388 -39.196729 73.513963 -41.826166 4.686796 -13.689937 11.008181 -0.018681 -0.091445 0.006778 -7.791748 -20.944325 8.555647 59.444087 77.647045 58.557082 5.239937 -14.955634 -18.890694 0.084780 0.082009 0.069143
-219.246124 57.896552 25.368555 175.928164 -50.191801 -4.079495 6.504404 21.303621 3.003930 3.494465 12.125505 1.469759 4.450277 15.202731 1.954914 3.489860 12.168250 1.470538 5.494188 14.161357 3.956978 8.807028 -9.552495 5.323343 3.443984 2.662520 3.240372 -3.563969 -17.671673 -8.840198 -97.803629 -57.415686 140.022937 7.120316 -3.137075 -9.178794 -7.905049 2.649059 1.052313 24.053536 -24.590205 -1.395678 130.641244 -54.694279 -151.176464 -2.046969 -22.445603 15.928589 4.204982 -21.562408 -1.943756 -39.174557 73.503957 -41.808268 4.688000 -13.672360 11.006930 -0.017918 -0.101532 0.005837 -7.790754 -20.817606 8.532698 59.394165 77.644383 58.483145 5.231555 -14.927386 -18.876557 0.080458 0.065858 0.067171
-219.249033 57.899589 25.374835 175.950211 -50.295170 -4.081974 6.482211 21.344142 3.013383 3.496682 12.178626 1.460917 4.421414 15.177430 1.979756 3.476993 12.182976 1.477908 5.425777 14.393364 4.042413 8.644861 -9.125653 5.518654 3.426965 2.697367 3.189689 -3.368478 -17.522795 -8.868478 -95.687339 -57.734900 137.956620 6.907329 -3.146729 -9.613015 -7.897561 2.706038 1.015101 23.294228 -24.339776 -1.409601 127.612130 -55.605974 -148.699246 -1.533563 -22.185629 15.913571 4.195088 -21.455031 -1.952025 -39.141045 73.495235 -41.777587 4.683157 -13.658436 11.006318 -0.008239 -0.104246 0.004709 -7.791845 -20.716312 8.517300 59.393911 77.618430 58.455853 5.210543 -14.904460 -18.863076 0.081272 0.060402 0.061170
-219.247276 57.900927 25.383601 175.964167 -50.386698 -4.107442 6.469809 21.365778 3.049913 3.467849 12.148877 1.484102 4.412760 15.229088 1.983594 3.472314 12.208235 1.478687 5.341872 14.642674 4.124921 8.455906 -8.666320 5.714039 3.429684 2.732843 3.137071 -3.215722 -17.347310 -8.891314 -93.547236 -57.975584 135.873233 6.670271 -3.218066 -10.041459 -7.895481 2.762842 0.986053 22.576330 -24.111345 -1.438282 124.100490 -56.385779 -145.837565 -0.960511 -21.842662 15.847574 4.179278 -21.362001 -1.931479 -39.126007 73.474734 -41.755083 4.699407 -13.643049 10.997750 -0.012983 -0.103677 0.001457 -7.807610 -20.622734 8.546633 59.355544 77.618899 58.391923 5.190436 -14.894860 -18.860036 0.086100 0.059396 0.068694
-219.247910 57.903223 25.391580 175.978002 -50.489127 -4.118201 6.442148 21.319292 3.082965 3.463346 12.222311 1.492643 4.411348 15.287834 1.971773 3.464045 12.194369 1.517161 5.238644 14.903242 4.202865 8.233773 -8.185479 5.907434 3.422999 2.773747 3.079566 -3.085653 -17.146994 -8.902542 -91.455555 -58.147172 133.833714 6.392962 -3.358740 -10.474593 -7.927584 2.822567 0.988257 21.947008 -23.896706 -1.511980 120.107819 -57.000586 -142.598472 -0.343458 -21.426543 15.740629 4.172725 -21.257895 -1.924761 -39.113209 73.462540 -41.738454 4.703745 -13.631129 10.993306 -0.021345 -0.104358 -0.000041 -7.807408 -20.520829 8.540362 59.332617 77.614552 58.359896 5.175949 -14.888520 -18.857433 0.086451 0.057526 0.061149
